<mxfile host="app.diagrams.net" modified="2021-12-05T10:43:32.698Z" agent="5.0 (Windows NT 10.0; Win64; x64) AppleWebKit/537.36 (KHTML, like Gecko) Chrome/96.0.4664.45 Safari/537.36" etag="k0eXjzrSPNiLBtWAQ3ip" version="15.8.4" type="github">
  <diagram id="oS7iosPnJlBr6-MLftsX" name="第 1 页">
    <mxGraphModel dx="1108" dy="487" grid="1" gridSize="10" guides="1" tooltips="1" connect="1" arrows="1" fold="1" page="1" pageScale="1" pageWidth="827" pageHeight="1169" math="0" shadow="0">
      <root>
        <mxCell id="0" />
        <mxCell id="1" parent="0" />
        <mxCell id="MR9WlqFfAqTgUZtqeVbF-1" value="" style="rounded=0;whiteSpace=wrap;html=1;" vertex="1" parent="1">
          <mxGeometry x="180" y="130" width="50" height="110" as="geometry" />
        </mxCell>
        <mxCell id="MR9WlqFfAqTgUZtqeVbF-2" value="" style="rounded=0;whiteSpace=wrap;html=1;" vertex="1" parent="1">
          <mxGeometry x="300" y="200" width="90" height="40" as="geometry" />
        </mxCell>
        <mxCell id="MR9WlqFfAqTgUZtqeVbF-3" value="" style="rounded=0;whiteSpace=wrap;html=1;" vertex="1" parent="1">
          <mxGeometry x="460" y="200" width="90" height="70" as="geometry" />
        </mxCell>
        <mxCell id="MR9WlqFfAqTgUZtqeVbF-4" value="" style="rounded=0;whiteSpace=wrap;html=1;" vertex="1" parent="1">
          <mxGeometry x="600" y="150" width="70" height="60" as="geometry" />
        </mxCell>
        <mxCell id="MR9WlqFfAqTgUZtqeVbF-5" value="" style="rounded=0;whiteSpace=wrap;html=1;" vertex="1" parent="1">
          <mxGeometry x="710" y="130" width="70" height="60" as="geometry" />
        </mxCell>
      </root>
    </mxGraphModel>
  </diagram>
</mxfile>
